/* XPM */
static char *afeb534905974a28e1dcadd11ec07b99gsWyVvgttXiCxvsf[] = {
/* columns rows colors chars-per-pixel */
"64 64 3 1 ",
"  c #03050E",
". c #111525",
"X c #FFF6C5",
/* pixels */
"                           XXXXXXXXXX                           ",
"                       XXXXXXXXXXXXXXXXXX                       ",
"                    XXXXXXX..........XXXXXXX                    ",
"                  XXXXX..................XXXXX                  ",
"                XXXXX......................XXXXX                ",
"               XXX............................XXX               ",
"             XXXX..............................XXXX             ",
"            XXX..................................XXX            ",
"           XXX....................................XXX           ",
"          XXX......................................XXX          ",
"         XXX........................................XXX         ",
"        XXX..........................................XXX        ",
"       XXX............................................XXX       ",
"      XXX..............................................XXX      ",
"      XX................................................XX      ",
"     XX..................................................XX     ",
"    XXX..................................................XXX    ",
"    XX....................................................XX    ",
"   XX......................................................XX   ",
"   XX......................................................XX   ",
"  XXX......................................................XXX  ",
"  XX........................................................XX  ",
"  XX........................................................XX  ",
" XX..........................................................XX ",
" XX..........................................................XX ",
" XX..........................................................XX ",
" XX..........................................................XX ",
"XX............................................................XX",
"XX............................................................XX",
"XX............................................................XX",
"XX............................................................XX",
"XX............................................................XX",
"XX............................................................XX",
"XX............................................................XX",
"XX............................................................XX",
"XX............................................................XX",
"XX............................................................XX",
" XX..........................................................XX ",
" XX..........................................................XX ",
" XX..........................................................XX ",
" XX..........................................................XX ",
"  XX........................................................XX  ",
"  XX........................................................XX  ",
"  XXX......................................................XXX  ",
"   XX......................................................XX   ",
"   XX......................................................XX   ",
"    XX....................................................XX    ",
"    XXX..................................................XXX    ",
"     XX..................................................XX     ",
"      XX................................................XX      ",
"      XXX..............................................XXX      ",
"       XXX............................................XXX       ",
"        XXX..........................................XXX        ",
"         XXX........................................XXX         ",
"          XXX......................................XXX          ",
"           XXX....................................XXX           ",
"            XXX..................................XXX            ",
"             XXXX..............................XXXX             ",
"               XXX............................XXX               ",
"                XXXXX......................XXXXX                ",
"                  XXXXX..................XXXXX                  ",
"                    XXXXXXX..........XXXXXXX                    ",
"                       XXXXXXXXXXXXXXXXXX                       ",
"                           XXXXXXXXXX                           "
};
