/* XPM */
static char *_dc7aeee60d0474f82f7004da950a014c6Q53r5ieJsDlLqK[] = {
/* columns rows colors chars-per-pixel */
"64 64 3 1 ",
"  c black",
". c #03050E",
"X c #FFEC00",
/* pixels */
".........................XXXXXXXXXX.............................",
".....................XXXXXXXXXXXXXXXXXX.........................",
"..................XXXXXXXXXXXXXXXXXXXXXXXX......................",
"................XXXXXXXXXXXXXXXXXXXXXXXXXXXX....................",
"..............XXXXXXXXXXXXXXXXXXXXXXXXXXXXXXXX..................",
".............XXXXXXXXXXXXXXXXXXXXXXXXXXXXXXXXXX.................",
"...........XXXXXXXXXXXXXXXXXXXXXXXXXXXXXXXXXXXXXX...............",
"..........XXXXXXXXXXXXXXXXXXXXXXXXXXXXXXXXXXXXXXXX..............",
".........XXXXXXXXXXXXXXXXXXXXXXXXXXXXXXXXXXXXXXXXXX.............",
"........XXXXXXXXXXXXXXXXXXXXXXXXXXXXXXXXXXXXXXXXXXXX............",
".......XXXXXXXXXXXXXXXXXXXXXXXXXXXXXXXXXXXXXXXXXXXXXX...........",
"......XXXXXXXXXXXXXXXXXXXXXXXXXXXXXXXXXXXXXXXXXXXXXXXX..........",
".....XXXXXXXXXXXXXXXXXXXXXXXXXXXXXXXXXXXXXXXXXXXXXXXXXX.........",
"....XXXXXXXXXXXXXXXXXXXXXXXXXXXXXXXXXXXXXXXXXXXXXXXXXXXX........",
"....XXXXXXXXXXXXXXXXXXXXXXXXXXXXXXXXXXXXXXXXXXXXXXXXXXXX........",
"...XXXXXXXXXXXXXXXXXXXXXXXXXXXXXXXXXXXXXXXXXXXXXXXXXXXXXX.......",
"..XXXXXXXXXXXXXXXXXXXXXXXXXXXXXXXXXXXXXXXXXXXXXXXXXXXXXXXX......",
"..XXXXXXXXXXXXXXXXXXXXXXXXXXXXXXXXXXXXXXX     XXXXXXXXXXXX......",
"...XXXXXXXXXXXXXXXXXXXXXXXXXXXXXXXXXXXXX       XXXXXXXXXXXX.....",
".....XXXXXXXXXXXXXXXXXXXXXXXXXXXXXXXXXX         XXXXXXXXXXX.....",
".......XXXXXXXXXXXXXXXXXXXXXXXXXXXXXXXX         XXXXXXXXXXXX....",
".........XXXXXXXXXXXXXXXXXXXXXXXXXXXXXX         XXXXXXXXXXXX....",
"...........XXXXXXXXXXXXXXXXXXXXXXXXXXXX         XXXXXXXXXXXX....",
".............XXXXXXXXXXXXXXXXXXXXXXXXXX         XXXXXXXXXXXXX...",
"................XXXXXXXXXXXXXXXXXXXXXXXX       XXXXXXXXXXXXXX...",
"..................XXXXXXXXXXXXXXXXXXXXXXX     XXXXXXXXXXXXXXX...",
"....................XXXXXXXXXXXXXXXXXXXXXXXXXXXXXXXXXXXXXXXXX...",
"......................XXXXXXXXXXXXXXXXXXXXXXXXXXXXXXXXXXXXXXXX..",
"........................XXXXXXXXXXXXXXXXXXXXXXXXXXXXXXXXXXXXXX..",
"..........................XXXXXXXXXXXXXXXXXXXXXXXXXXXXXXXXXXXX..",
"............................XXXXXXXXXXXXXXXXXXXXXXXXXXXXXXXXXX..",
".............................XXXXXXXXXXXXXXXXXXXXXXXXXXXXXXXXX..",
".............................XXXXXXXXXXXXXXXXXXXXXXXXXXXXXXXXX..",
"............................XXXXXXXXXXXXXXXXXXXXXXXXXXXXXXXXXX..",
"..........................XXXXXXXXXXXXXXXXXXXXXXXXXXXXXXXXXXXX..",
"........................XXXXXXXXXXXXXXXXXXXXXXXXXXXXXXXXXXXXXX..",
"......................XXXXXXXXXXXXXXXXXXXXXXXXXXXXXXXXXXXXXXXX..",
"....................XXXXXXXXXXXXXXXXXXXXXXXXXXXXXXXXXXXXXXXXX...",
"..................XXXXXXXXXXXXXXXXXXXXXXXXXXXXXXXXXXXXXXXXXXX...",
"................XXXXXXXXXXXXXXXXXXXXXXXXXXXXXXXXXXXXXXXXXXXXX...",
".............XXXXXXXXXXXXXXXXXXXXXXXXXXXXXXXXXXXXXXXXXXXXXXXX...",
"...........XXXXXXXXXXXXXXXXXXXXXXXXXXXXXXXXXXXXXXXXXXXXXXXXX....",
".........XXXXXXXXXXXXXXXXXXXXXXXXXXXXXXXXXXXXXXXXXXXXXXXXXXX....",
".......XXXXXXXXXXXXXXXXXXXXXXXXXXXXXXXXXXXXXXXXXXXXXXXXXXXXX....",
".....XXXXXXXXXXXXXXXXXXXXXXXXXXXXXXXXXXXXXXXXXXXXXXXXXXXXXX.....",
"...XXXXXXXXXXXXXXXXXXXXXXXXXXXXXXXXXXXXXXXXXXXXXXXXXXXXXXXX.....",
"..XXXXXXXXXXXXXXXXXXXXXXXXXXXXXXXXXXXXXXXXXXXXXXXXXXXXXXXX......",
"..XXXXXXXXXXXXXXXXXXXXXXXXXXXXXXXXXXXXXXXXXXXXXXXXXXXXXXXX......",
"...XXXXXXXXXXXXXXXXXXXXXXXXXXXXXXXXXXXXXXXXXXXXXXXXXXXXXX.......",
"....XXXXXXXXXXXXXXXXXXXXXXXXXXXXXXXXXXXXXXXXXXXXXXXXXXXX........",
"....XXXXXXXXXXXXXXXXXXXXXXXXXXXXXXXXXXXXXXXXXXXXXXXXXXXX........",
".....XXXXXXXXXXXXXXXXXXXXXXXXXXXXXXXXXXXXXXXXXXXXXXXXXX.........",
"......XXXXXXXXXXXXXXXXXXXXXXXXXXXXXXXXXXXXXXXXXXXXXXXX..........",
".......XXXXXXXXXXXXXXXXXXXXXXXXXXXXXXXXXXXXXXXXXXXXXX...........",
"........XXXXXXXXXXXXXXXXXXXXXXXXXXXXXXXXXXXXXXXXXXXX............",
".........XXXXXXXXXXXXXXXXXXXXXXXXXXXXXXXXXXXXXXXXXX.............",
"..........XXXXXXXXXXXXXXXXXXXXXXXXXXXXXXXXXXXXXXXX..............",
"...........XXXXXXXXXXXXXXXXXXXXXXXXXXXXXXXXXXXXXX...............",
".............XXXXXXXXXXXXXXXXXXXXXXXXXXXXXXXXXX.................",
"..............XXXXXXXXXXXXXXXXXXXXXXXXXXXXXXXX..................",
"................XXXXXXXXXXXXXXXXXXXXXXXXXXXX....................",
"..................XXXXXXXXXXXXXXXXXXXXXXXX......................",
".....................XXXXXXXXXXXXXXXXXX.........................",
".........................XXXXXXXXXX............................."
};
