/* XPM */
static char *dd31d0257b7d455c9ea29748bbabd8a2eJMAMB9OUWevSrUF[] = {
/* columns rows colors chars-per-pixel */
"64 64 2 1 ",
"  c #03050E",
". c #FFEC00",
/* pixels */
"                                                                ",
"                                                                ",
"                                                                ",
"                                                                ",
"                                                                ",
"                                                                ",
"                                                                ",
"                                                                ",
"                            ........                            ",
"                        ................                        ",
"                      ....................                      ",
"                    ........................                    ",
"                   ..........................                   ",
"                 ..............................                 ",
"                ................................                ",
"               ......................   .........               ",
"              ......................     .........              ",
"             ......................       .........             ",
"             ......................       .........             ",
"               ....................       ..........            ",
"                ....................     ............           ",
"                  ...................   .............           ",
"                   ...................................          ",
"                     .................................          ",
"                      .................................         ",
"                       ................................         ",
"                         ..............................         ",
"                          .............................         ",
"                            ............................        ",
"                             ...........................        ",
"                               .........................        ",
"                                ........................        ",
"                                ........................        ",
"                               .........................        ",
"                             ...........................        ",
"                            ............................        ",
"                          .............................         ",
"                         ..............................         ",
"                       ................................         ",
"                      .................................         ",
"                     .................................          ",
"                   ...................................          ",
"                  ...................................           ",
"                .....................................           ",
"               .....................................            ",
"             ......................................             ",
"             ......................................             ",
"              ....................................              ",
"               ..................................               ",
"                ................................                ",
"                 ..............................                 ",
"                   ..........................                   ",
"                    ........................                    ",
"                      ....................                      ",
"                        ................                        ",
"                            ........                            ",
"                                                                ",
"                                                                ",
"                                                                ",
"                                                                ",
"                                                                ",
"                                                                ",
"                                                                ",
"                                                                "
};
