/* XPM */
static char *_0d2c7a92bea4ef9ca29f144f092d00aT4rRP5Yfent0xCLR[] = {
/* columns rows colors chars-per-pixel */
"64 64 2 1 ",
"  c #03050E",
". c #FFEC00",
/* pixels */
"                                                                ",
"                                                                ",
"                                                                ",
"                                                                ",
"                                                                ",
"                                                                ",
"                                                                ",
"                                                                ",
"                            ........                            ",
"                        ................                        ",
"                      ....................                      ",
"                    ........................                    ",
"                   ..........................                   ",
"                 ..............................                 ",
"                ................................                ",
"               .........   ......................               ",
"              .........     ......................              ",
"             .........       ......................             ",
"             .........       ......................             ",
"            ..........       ....................               ",
"           ............     ....................                ",
"           .............   ...................                  ",
"          ...................................                   ",
"          .................................                     ",
"         .................................                      ",
"         ................................                       ",
"         ..............................                         ",
"         .............................                          ",
"        ............................                            ",
"        ...........................                             ",
"        .........................                               ",
"        ........................                                ",
"        ........................                                ",
"        .........................                               ",
"        ...........................                             ",
"        ............................                            ",
"         .............................                          ",
"         ..............................                         ",
"         ................................                       ",
"         .................................                      ",
"          .................................                     ",
"          ...................................                   ",
"           ...................................                  ",
"           .....................................                ",
"            .....................................               ",
"             ......................................             ",
"             ......................................             ",
"              ....................................              ",
"               ..................................               ",
"                ................................                ",
"                 ..............................                 ",
"                   ..........................                   ",
"                    ........................                    ",
"                      ....................                      ",
"                        ................                        ",
"                            ........                            ",
"                                                                ",
"                                                                ",
"                                                                ",
"                                                                ",
"                                                                ",
"                                                                ",
"                                                                ",
"                                                                "
};
