/* XPM */
static char *_7a7f5c6f8174f8ac5963236728e2642LqDFnq8mZriw0QFN[] = {
/* columns rows colors chars-per-pixel */
"64 64 2 1 ",
"  c #03050E",
". c #FFEC00",
/* pixels */
"                                                                ",
"                                                                ",
"                                                                ",
"                                                                ",
"                                                                ",
"                                                                ",
"                                                                ",
"                                                                ",
"                                                                ",
"                                                                ",
"                                                                ",
"                                                                ",
"                                             ..                 ",
"                 ..                          ...                ",
"                ...                         .....               ",
"               .....                       .......              ",
"              .......                      ........             ",
"             ........                     .........             ",
"             .........                   ...........            ",
"            ...........                  ............           ",
"           ............                 .............           ",
"           .............               ...............          ",
"          ...............             ................          ",
"          ................            .................         ",
"         .................           ..................         ",
"         ..................         ...................         ",
"         ...................        ...................         ",
"         ...................       .....................        ",
"        .....................     ......................        ",
"        ......................    ......................        ",
"        ......................   .......................        ",
"        ....................... ........................        ",
"        ................................................        ",
"        ................................................        ",
"        ................................................        ",
"        .........   ...................................         ",
"         .......     ..................................         ",
"         ......       .................................         ",
"         ......       .................................         ",
"         ......       ................................          ",
"          ......     .................................          ",
"          .......   .................................           ",
"           ..........................................           ",
"           .........................................            ",
"            .......................................             ",
"             ......................................             ",
"             .....................................              ",
"              ...................................               ",
"               .................................                ",
"                ...............................                 ",
"                 ............................                   ",
"                   .........................                    ",
"                    ......................                      ",
"                      ..................                        ",
"                        ............                            ",
"                            ....                                ",
"                                                                ",
"                                                                ",
"                                                                ",
"                                                                ",
"                                                                ",
"                                                                ",
"                                                                ",
"                                                                "
};
