/* XPM */
static char *_d9caeb327524446b83bf70f34c20ee21QL53R63dIbt5ErU[] = {
/* columns rows colors chars-per-pixel */
"64 64 2 1 ",
"  c #03050E",
". c #FFEC00",
/* pixels */
"                                                                ",
"                                                                ",
"                                                                ",
"                                                                ",
"                                                                ",
"                                                                ",
"                                                                ",
"                                                                ",
"                            ........                            ",
"                        ................                        ",
"                      ....................                      ",
"                    ........................                    ",
"                   ..........................                   ",
"                 ..............................                 ",
"                ................................                ",
"               ..................................               ",
"              ....................................              ",
"             ......................................             ",
"             ......................................             ",
"            ........................................            ",
"           ..........................................           ",
"           ..........................................           ",
"          ..................................   .......          ",
"          .................................     ......          ",
"         .................................       ......         ",
"         .................................       ......         ",
"         .................................       ......         ",
"         ..................................     .......         ",
"        ....................................   .........        ",
"        ................................................        ",
"        ................................................        ",
"        ................................................        ",
"        .......................  .......................        ",
"        ......................    ......................        ",
"        ......................    ......................        ",
"        .....................      .....................        ",
"         ...................        ...................         ",
"         ...................        ...................         ",
"         ..................          ..................         ",
"         .................            .................         ",
"          ................            ................          ",
"          ...............              ...............          ",
"           .............                .............           ",
"           ............                  ............           ",
"            ...........                  ...........            ",
"             .........                    .........             ",
"             ........                      ........             ",
"              .......                      .......              ",
"               .....                        .....               ",
"                ...                          ...                ",
"                 ..                          ..                 ",
"                                                                ",
"                                                                ",
"                                                                ",
"                                                                ",
"                                                                ",
"                                                                ",
"                                                                ",
"                                                                ",
"                                                                ",
"                                                                ",
"                                                                ",
"                                                                ",
"                                                                "
};
