/* XPM */
static char *_e5df0c2543c4054ed3f07fd1812d6cdlZI9ZzgSEpdTEPQV[] = {
/* columns rows colors chars-per-pixel */
"64 64 3 1 ",
"  c black",
". c #03050E",
"X c #FFEC00",
/* pixels */
".............................XXXXXXXXXX.........................",
".........................XXXXXXXXXXXXXXXXXX.....................",
"......................XXXXXXXXXXXXXXXXXXXXXXXX..................",
"....................XXXXXXXXXXXXXXXXXXXXXXXXXXXX................",
"..................XXXXXXXXXXXXXXXXXXXXXXXXXXXXXXXX..............",
".................XXXXXXXXXXXXXXXXXXXXXXXXXXXXXXXXXX.............",
"...............XXXXXXXXXXXXXXXXXXXXXXXXXXXXXXXXXXXXXX...........",
"..............XXXXXXXXXXXXXXXXXXXXXXXXXXXXXXXXXXXXXXXX..........",
".............XXXXXXXXXXXXXXXXXXXXXXXXXXXXXXXXXXXXXXXXXX.........",
"............XXXXXXXXXXXXXXXXXXXXXXXXXXXXXXXXXXXXXXXXXXXX........",
"...........XXXXXXXXXXXXXXXXXXXXXXXXXXXXXXXXXXXXXXXXXXXXXX.......",
"..........XXXXXXXXXXXXXXXXXXXXXXXXXXXXXXXXXXXXXXXXXXXXXXXX......",
".........XXXXXXXXXXXXXXXXXXXXXXXXXXXXXXXXXXXXXXXXXXXXXXXXXX.....",
"........XXXXXXXXXXXXXXXXXXXXXXXXXXXXXXXXXXXXXXXXXXXXXXXXXXXX....",
"........XXXXXXXXXXXXXXXXXXXXXXXXXXXXXXXXXXXXXXXXXXXXXXXXXXXX....",
".......XXXXXXXXXXXXXXXXXXXXXXXXXXXXXXXXXXXXXXXXXXXXXXXXXXXXXX...",
"......XXXXXXXXXXXXXXXXXXXXXXXXXXXXXXXXXXXXXXXXXXXXXXXXXXXXXXXX..",
"......XXXXXXXXXXXX     XXXXXXXXXXXXXXXXXXXXXXXXXXXXXXXXXXXXXXX..",
".....XXXXXXXXXXXX       XXXXXXXXXXXXXXXXXXXXXXXXXXXXXXXXXXXXX...",
".....XXXXXXXXXXX         XXXXXXXXXXXXXXXXXXXXXXXXXXXXXXXXXX.....",
"....XXXXXXXXXXXX         XXXXXXXXXXXXXXXXXXXXXXXXXXXXXXXX.......",
"....XXXXXXXXXXXX         XXXXXXXXXXXXXXXXXXXXXXXXXXXXXX.........",
"....XXXXXXXXXXXX         XXXXXXXXXXXXXXXXXXXXXXXXXXXX...........",
"...XXXXXXXXXXXXX         XXXXXXXXXXXXXXXXXXXXXXXXXX.............",
"...XXXXXXXXXXXXXX       XXXXXXXXXXXXXXXXXXXXXXXX................",
"...XXXXXXXXXXXXXXX     XXXXXXXXXXXXXXXXXXXXXXX..................",
"...XXXXXXXXXXXXXXXXXXXXXXXXXXXXXXXXXXXXXXXXX....................",
"..XXXXXXXXXXXXXXXXXXXXXXXXXXXXXXXXXXXXXXXX......................",
"..XXXXXXXXXXXXXXXXXXXXXXXXXXXXXXXXXXXXXX........................",
"..XXXXXXXXXXXXXXXXXXXXXXXXXXXXXXXXXXXX..........................",
"..XXXXXXXXXXXXXXXXXXXXXXXXXXXXXXXXXX............................",
"..XXXXXXXXXXXXXXXXXXXXXXXXXXXXXXXXX.............................",
"..XXXXXXXXXXXXXXXXXXXXXXXXXXXXXXXXX.............................",
"..XXXXXXXXXXXXXXXXXXXXXXXXXXXXXXXXXX............................",
"..XXXXXXXXXXXXXXXXXXXXXXXXXXXXXXXXXXXX..........................",
"..XXXXXXXXXXXXXXXXXXXXXXXXXXXXXXXXXXXXXX........................",
"..XXXXXXXXXXXXXXXXXXXXXXXXXXXXXXXXXXXXXXXX......................",
"...XXXXXXXXXXXXXXXXXXXXXXXXXXXXXXXXXXXXXXXXX....................",
"...XXXXXXXXXXXXXXXXXXXXXXXXXXXXXXXXXXXXXXXXXXX..................",
"...XXXXXXXXXXXXXXXXXXXXXXXXXXXXXXXXXXXXXXXXXXXXX................",
"...XXXXXXXXXXXXXXXXXXXXXXXXXXXXXXXXXXXXXXXXXXXXXXXX.............",
"....XXXXXXXXXXXXXXXXXXXXXXXXXXXXXXXXXXXXXXXXXXXXXXXXX...........",
"....XXXXXXXXXXXXXXXXXXXXXXXXXXXXXXXXXXXXXXXXXXXXXXXXXXX.........",
"....XXXXXXXXXXXXXXXXXXXXXXXXXXXXXXXXXXXXXXXXXXXXXXXXXXXXX.......",
".....XXXXXXXXXXXXXXXXXXXXXXXXXXXXXXXXXXXXXXXXXXXXXXXXXXXXXX.....",
".....XXXXXXXXXXXXXXXXXXXXXXXXXXXXXXXXXXXXXXXXXXXXXXXXXXXXXXXX...",
"......XXXXXXXXXXXXXXXXXXXXXXXXXXXXXXXXXXXXXXXXXXXXXXXXXXXXXXXX..",
"......XXXXXXXXXXXXXXXXXXXXXXXXXXXXXXXXXXXXXXXXXXXXXXXXXXXXXXXX..",
".......XXXXXXXXXXXXXXXXXXXXXXXXXXXXXXXXXXXXXXXXXXXXXXXXXXXXXX...",
"........XXXXXXXXXXXXXXXXXXXXXXXXXXXXXXXXXXXXXXXXXXXXXXXXXXXX....",
"........XXXXXXXXXXXXXXXXXXXXXXXXXXXXXXXXXXXXXXXXXXXXXXXXXXXX....",
".........XXXXXXXXXXXXXXXXXXXXXXXXXXXXXXXXXXXXXXXXXXXXXXXXXX.....",
"..........XXXXXXXXXXXXXXXXXXXXXXXXXXXXXXXXXXXXXXXXXXXXXXXX......",
"...........XXXXXXXXXXXXXXXXXXXXXXXXXXXXXXXXXXXXXXXXXXXXXX.......",
"............XXXXXXXXXXXXXXXXXXXXXXXXXXXXXXXXXXXXXXXXXXXX........",
".............XXXXXXXXXXXXXXXXXXXXXXXXXXXXXXXXXXXXXXXXXX.........",
"..............XXXXXXXXXXXXXXXXXXXXXXXXXXXXXXXXXXXXXXXX..........",
"...............XXXXXXXXXXXXXXXXXXXXXXXXXXXXXXXXXXXXXX...........",
".................XXXXXXXXXXXXXXXXXXXXXXXXXXXXXXXXXX.............",
"..................XXXXXXXXXXXXXXXXXXXXXXXXXXXXXXXX..............",
"....................XXXXXXXXXXXXXXXXXXXXXXXXXXXX................",
"......................XXXXXXXXXXXXXXXXXXXXXXXX..................",
".........................XXXXXXXXXXXXXXXXXX.....................",
".............................XXXXXXXXXX........................."
};
