/* XPM */
static char *dcd0e725a4f84c9fa35f4b14be55e33eVnkliV96URXKqdvT[] = {
/* columns rows colors chars-per-pixel */
"64 64 3 1 ",
"  c black",
". c #03050E",
"X c #FFEC00",
/* pixels */
"................................................................",
"................................................................",
"................XX............................XX................",
"...............XXXX..........................XXXX...............",
".............XXXXXX..........................XXXXXX.............",
"............XXXXXXXX........................XXXXXXXX............",
"...........XXXXXXXXX........................XXXXXXXXX...........",
"..........XXXXXXXXXXX......................XXXXXXXXXXX..........",
".........XXXXXXXXXXXX......................XXXXXXXXXXXX.........",
"........XXXXXXXXXXXXXX....................XXXXXXXXXXXXXX........",
".......XXXXXXXXXXXXXXX....................XXXXXXXXXXXXXXX.......",
"......XXXXXXXXXXXXXXXXX..................XXXXXXXXXXXXXXXXX......",
"......XXXXXXXXXXXXXXXXX..................XXXXXXXXXXXXXXXXX......",
".....XXXXXXXXXXXXXXXXXXX................XXXXXXXXXXXXXXXXXXX.....",
"....XXXXXXXXXXXXXXXXXXXX................XXXXXXXXXXXXXXXXXXXX....",
"....XXXXXXXXXXXXXXXXXXXX................XXXXXXXXXXXXXXXXXXXX....",
"...XXXXXXXXXXXXXXXXXXXXXX..............XXXXXXXXXXXXXXXXXXXXXX...",
"...XXXXXXXXXXXXXXXXXXXXXX..............XXXXXXXXXXXXXXXXXXXXXX...",
"..XXXXXXXXXXXXXXXXXXXXXXXX............XXXXXXXXXXXXXXXXXXXXXXXX..",
"..XXXXXXXXXXXXXXXXXXXXXXXX............XXXXXXXXXXXXXXXXXXXXXXXX..",
"..XXXXXXXXXXXXXXXXXXXXXXXXX..........XXXXXXXXXXXXXXXXXXXXXXXXX..",
".XXXXXXXXXXXXXXXXXXXXXXXXXX..........XXXXXXXXXXXXXXXXXXXXXXXXXX.",
".XXXXXXXXXXXXXXXXXXXXXXXXXXX........XXXXXXXXXXXXXXXXXXXXXXXXXXX.",
".XXXXXXXXXXXXXXXXXXXXXXXXXXX........XXXXXXXXXXXXXXXXXXXXXXXXXXX.",
".XXXXXXXXXXXXXXXXXXXXXXXXXXXX......XXXXXXXXXXXXXXXXXXXXXXXXXXXX.",
"XXXXXXXXXXXXXXXXXXXXXXXXXXXXX......XXXXXXXXXXXXXXXXXXXXXXXXXXXXX",
"XXXXXXXXXXXXXXXXXXXXXXXXXXXXXX....XXXXXXXXXXXXXXXXXXXXXXXXXXXXXX",
"XXXXXXXXXXXXXXXXXXXXXXXXXXXXXX....XXXXXXXXXXXXXXXXXXXXXXXXXXXXXX",
"XXXXXXXXXXXXXXXXXXXXXXXXXXXXXXX..XXXXXXXXXXXXXXXXXXXXXXXXXXXXXXX",
"XXXXXXXXXXXXXXXXXXXXXXXXXXXXXXXXXXXXXXXXXXXXXXXXXXXXXXXXXXXXXXXX",
"XXXXXXXXXXXXXXXXXXXXXXXXXXXXXXXXXXXXXXXXXXXXXXXXXXXXXXXXXXXXXXXX",
"XXXXXXXXXXXXXXXXXXXXXXXXXXXXXXXXXXXXXXXXXXXXXXXXXXXXXXXXXXXXXXXX",
"XXXXXXXXXXXXXXXXXXXXXXXXXXXXXXXXXXXXXXXXXXXXXXXXXXXXXXXXXXXXXXXX",
"XXXXXXXXXXXXXXXXXXXXXXXXXXXXXXXXXXXXXXXXXXXXXXXXXXXXXXXXXXXXXXXX",
"XXXXXXXXXXXXXXXXXXXXXXXXXXXXXXXXXXXXXXXXXXXXXXXXXXXXXXXXXXXXXXXX",
".XXXXXXXXXXXXXXXXXXXXXXXXXXXXXXXXXXXXXXXXXXXXXXXXXXXXXXXXXXXXXX.",
".XXXXXXXXXXXXXXXXXXXXXXXXXXXXXXXXXXXXXXXXXXXXXXXXXXXXXXXXXXXXXX.",
".XXXXXXXXXXXXXXXXXXXXXXXXXXXXXXXXXXXXXXXXXXXXXXXXXXXXXXXXXXXXXX.",
".XXXXXXXXXXXXXXXXXXXXXXXXXXXXXXXXXXXXXXXXXXXXXXXXXXXXXXXXXXXXXX.",
"..XXXXXXXXXXXXXXXXXXXXXXXXXXXXXXXXXXXXXX     XXXXXXXXXXXXXXXXX..",
"..XXXXXXXXXXXXXXXXXXXXXXXXXXXXXXXXXXXXX       XXXXXXXXXXXXXXXX..",
"..XXXXXXXXXXXXXXXXXXXXXXXXXXXXXXXXXXXX         XXXXXXXXXXXXXXX..",
"...XXXXXXXXXXXXXXXXXXXXXXXXXXXXXXXXXXX         XXXXXXXXXXXXXX...",
"...XXXXXXXXXXXXXXXXXXXXXXXXXXXXXXXXXXX         XXXXXXXXXXXXXX...",
"....XXXXXXXXXXXXXXXXXXXXXXXXXXXXXXXXXX         XXXXXXXXXXXXX....",
"....XXXXXXXXXXXXXXXXXXXXXXXXXXXXXXXXXX         XXXXXXXXXXXXX....",
".....XXXXXXXXXXXXXXXXXXXXXXXXXXXXXXXXXX       XXXXXXXXXXXXX.....",
"......XXXXXXXXXXXXXXXXXXXXXXXXXXXXXXXXXX     XXXXXXXXXXXXX......",
"......XXXXXXXXXXXXXXXXXXXXXXXXXXXXXXXXXXXXXXXXXXXXXXXXXXXX......",
".......XXXXXXXXXXXXXXXXXXXXXXXXXXXXXXXXXXXXXXXXXXXXXXXXXX.......",
"........XXXXXXXXXXXXXXXXXXXXXXXXXXXXXXXXXXXXXXXXXXXXXXXX........",
".........XXXXXXXXXXXXXXXXXXXXXXXXXXXXXXXXXXXXXXXXXXXXXX.........",
"..........XXXXXXXXXXXXXXXXXXXXXXXXXXXXXXXXXXXXXXXXXXXX..........",
"...........XXXXXXXXXXXXXXXXXXXXXXXXXXXXXXXXXXXXXXXXXX...........",
"............XXXXXXXXXXXXXXXXXXXXXXXXXXXXXXXXXXXXXXXX............",
".............XXXXXXXXXXXXXXXXXXXXXXXXXXXXXXXXXXXXXX.............",
"...............XXXXXXXXXXXXXXXXXXXXXXXXXXXXXXXXXX...............",
"................XXXXXXXXXXXXXXXXXXXXXXXXXXXXXXXX................",
"..................XXXXXXXXXXXXXXXXXXXXXXXXXXXX..................",
"....................XXXXXXXXXXXXXXXXXXXXXXXX....................",
".......................XXXXXXXXXXXXXXXXXX.......................",
"...........................XXXXXXXXXX...........................",
"................................................................",
"................................................................"
};
