/* XPM */
static char *d5c6038f4d9b40e4af5abd3ead26eaa4VQyXLd6dw8oNtdDw[] = {
/* columns rows colors chars-per-pixel */
"64 64 2 1 ",
"  c #030B25",
". c #002FD9",
/* pixels */
"................................................................",
"................................................................",
"..                                                            ..",
"..                                                            ..",
"..                                                            ..",
"..                                                            ..",
"..                                                            ..",
"..                                                            ..",
"..                                                            ..",
"..                                                            ..",
"..                                                            ..",
"..                                                            ..",
"..                                                            ..",
"..                                                            ..",
"..                                                            ..",
"..                                                            ..",
"..                                                            ..",
"..                                                            ..",
"..                                                            ..",
"..                                                            ..",
"..                                                            ..",
"..                                                            ..",
"..                                                            ..",
"..                                                            ..",
"..                                                            ..",
"..                                                            ..",
"..                                                            ..",
"..                                                            ..",
"..                                                            ..",
"..                                                            ..",
"..                                                            ..",
"..                                                            ..",
"..                                                            ..",
"..                                                            ..",
"..                                                            ..",
"..                                                            ..",
"..                                                            ..",
"..                                                            ..",
"..                                                            ..",
"..                                                            ..",
"..                                                            ..",
"..                                                            ..",
"..                                                            ..",
"..                                                            ..",
"..                                                            ..",
"..                                                            ..",
"..                                                            ..",
"..                                                            ..",
"..                                                            ..",
"..                                                            ..",
"..                                                            ..",
"..                                                            ..",
"..                                                            ..",
"..                                                            ..",
"..                                                            ..",
"..                                                            ..",
"..                                                            ..",
"..                                                            ..",
"..                                                            ..",
"..                                                            ..",
"..                                                            ..",
"..                                                            ..",
"................................................................",
"................................................................"
};
